HIERARCHY
ROOT Hips
{
	OFFSET 0.000000 0.000000 0.000000
	CHANNELS 6 Xposition Yposition Zposition Xrotation Yrotation Zrotation
	JOINT LeftUpLeg_virtual
	{
		OFFSET 0.000000 0.000000 0.000000
		CHANNELS 3 Xrotation Yrotation Zrotation
		JOINT LeftUpLeg
		{
			OFFSET 13.026900 -6.336304 -1.092800
			CHANNELS 3 Xrotation Yrotation Zrotation
			JOINT LeftLeg
			{
				OFFSET 0.524474 -46.096886 9.782700
				CHANNELS 3 Xrotation Yrotation Zrotation
				JOINT LeftFoot
				{
					OFFSET -0.524474 -53.427422 -12.948200
					CHANNELS 3 Xrotation Yrotation Zrotation
					JOINT LeftToeBase
					{
						OFFSET 0.192200 -14.009700 16.364100
						CHANNELS 3 Xrotation Yrotation Zrotation
						JOINT LeftToe_End
						{
							OFFSET -1.784700 -0.561700 9.474800
							CHANNELS 3 Xrotation Yrotation Zrotation
							End Site
							{
								OFFSET 0 0 0
							}
						}
					}
				}
			}
		}
	}
	JOINT RightUpLeg_virtual
	{
		OFFSET 0.000000 0.000000 0.000000
		CHANNELS 3 Xrotation Yrotation Zrotation
		JOINT RightUpLeg
		{
			OFFSET -12.883000 -6.336304 -1.092800
			CHANNELS 3 Xrotation Yrotation Zrotation
			JOINT RightLeg
			{
				OFFSET -0.524587 -46.096825 9.782800
				CHANNELS 3 Xrotation Yrotation Zrotation
				JOINT RightFoot
				{
					OFFSET 0.524587 -53.427383 -12.948300
					CHANNELS 3 Xrotation Yrotation Zrotation
					JOINT RightToeBase
					{
						OFFSET -0.192200 -14.009700 16.364100
						CHANNELS 3 Xrotation Yrotation Zrotation
						JOINT RightToe_End
						{
							OFFSET 1.784700 -0.561700 9.474800
							CHANNELS 3 Xrotation Yrotation Zrotation
							End Site
							{
								OFFSET 0 0 0
							}
						}
					}
				}
			}
		}
	}
	JOINT Spine_virtual
	{
		OFFSET 0.000000 0.000000 0.000000
		CHANNELS 3 Xrotation Yrotation Zrotation
		JOINT Spine
		{
			OFFSET 0.072000 7.257294 -0.789700
			CHANNELS 3 Xrotation Yrotation Zrotation
			JOINT Spine1
			{
				OFFSET 0.000000 12.508769 -0.658067
				CHANNELS 3 Xrotation Yrotation Zrotation
				JOINT Spine1_split
				{
					OFFSET 0.000000 12.508769 -0.658067
					CHANNELS 3 Xrotation Yrotation Zrotation
					JOINT Spine2
					{
						OFFSET 0.000000 12.508769 -0.658067
						CHANNELS 3 Xrotation Yrotation Zrotation
						JOINT Neck_virtual
						{
							OFFSET 0.000000 0.000000 0.000000
							CHANNELS 3 Xrotation Yrotation Zrotation
							JOINT Neck
							{
								OFFSET 0.000000 14.033295 7.520400
								CHANNELS 3 Xrotation Yrotation Zrotation
								JOINT Head
								{
									OFFSET 0.000000 8.198502 5.703100
									CHANNELS 3 Xrotation Yrotation Zrotation
									JOINT HeadTop_End
									{
										OFFSET 0.000000 17.760803 13.332701
										CHANNELS 3 Xrotation Yrotation Zrotation
										End Site
										{
											OFFSET 0 0 0
										}
									}
								}
							}
						}
						JOINT LeftShoulder_virtual
						{
							OFFSET 0.000000 0.000000 0.000000
							CHANNELS 3 Xrotation Yrotation Zrotation
							JOINT LeftShoulder
							{
								OFFSET 6.292450 5.785301 -0.669000
								CHANNELS 3 Xrotation Yrotation Zrotation
								JOINT LeftShoulder_split
								{
									OFFSET 6.292450 5.785301 -0.669000
									CHANNELS 3 Xrotation Yrotation Zrotation
									JOINT LeftArm
									{
										OFFSET 13.907140 -6.093903 1.965100
										CHANNELS 3 Xrotation Yrotation Zrotation
										JOINT LeftForeArm
										{
											OFFSET 34.140198 0.000000 0.000000
											CHANNELS 3 Xrotation Yrotation Zrotation
											JOINT LeftHand
											{
												OFFSET 40.960209 0.000000 0.000000
												CHANNELS 3 Xrotation Yrotation Zrotation
												End Site
												{
													OFFSET 0 0 0
												}
											}
										}
									}
								}
							}
						}
						JOINT RightShoulder_virtual
						{
							OFFSET 0.000000 0.000000 0.000000
							CHANNELS 3 Xrotation Yrotation Zrotation
							JOINT RightShoulder
							{
								OFFSET -6.292450 5.785301 -0.669000
								CHANNELS 3 Xrotation Yrotation Zrotation
								JOINT RightShoulder_split
								{
									OFFSET -6.292450 5.785301 -0.669000
									CHANNELS 3 Xrotation Yrotation Zrotation
									JOINT RightArm
									{
										OFFSET -13.907140 -6.093903 1.965100
										CHANNELS 3 Xrotation Yrotation Zrotation
										JOINT RightForeArm
										{
											OFFSET -34.140198 0.000000 0.000000
											CHANNELS 3 Xrotation Yrotation Zrotation
											JOINT RightHand
											{
												OFFSET -40.960209 0.000000 0.000000
												CHANNELS 3 Xrotation Yrotation Zrotation
												End Site
												{
													OFFSET 0 0 0
												}
											}
										}
									}
								}
							}
						}
					}
				}
			}
		}
	}
}
MOTION
Frames: 11
Frame Time: 0.03333333
28.527554 109.628860 -43.374249 0.000000 0.000000 0.000000 125.848749 -63.299045 128.892923 -2.563578 42.648425 7.893188 6.594192 -7.849631 0.846966 -10.947856 26.986764 -21.062951 3.050974 -8.127277 -1.210102 0.000000 0.000000 0.000000 128.157776 -61.917659 130.703320 -58.066232 24.299088 11.230097 21.712924 -11.709681 -2.007038 3.515576 4.365497 28.086600 2.193639 2.173106 -12.855176 0.000000 0.000000 0.000000 124.662973 -62.905790 126.584702 33.255136 4.876840 9.374549 -7.821974 -0.202234 -0.254060 0.105953 0.057838 0.093004 0.000000 0.000000 0.000000 -8.103254 0.750137 1.727768 -3.907190 21.477579 6.267143 -15.627664 -34.840911 -17.632396 0.000000 0.000000 0.000000 -6.955628 -1.514468 1.132362 2.786773 -12.499938 36.411872 1.594337 -1.089684 0.470222 -63.556905 -2.949957 -49.278241 -42.729083 -58.869271 -36.173382 0.000000 0.000000 0.000000 -9.214330 -1.691878 1.123355 11.853987 -2.839978 -10.324708 -8.729120 0.648299 -2.435960 -12.592432 6.204303 68.035924 -1.109599 22.895865 15.645189 0.000000 0.000000 0.000000 
28.372334 109.924484 -43.713673 0.000000 0.000000 0.000000 125.812686 -63.692095 128.916993 -2.077282 42.583808 7.519795 5.831456 -7.706901 0.696793 -10.399898 26.797571 -21.053269 2.779108 -8.156559 -1.360604 0.000000 0.000000 0.000000 128.055173 -62.327853 130.650126 -57.448871 24.452499 11.106459 21.494026 -11.703304 -1.991826 3.397741 4.463386 27.920746 2.211223 2.182161 -12.876499 0.000000 0.000000 0.000000 124.720825 -63.352347 126.769677 33.068931 4.865214 9.213652 -7.682753 -0.215836 -0.105575 0.092148 0.114416 0.082694 0.000000 0.000000 0.000000 -8.060243 0.748456 1.789644 -4.445348 20.512793 7.351665 -15.824676 -34.753874 -17.458392 0.000000 0.000000 0.000000 -6.713693 -1.575695 1.343221 2.487692 -11.634317 35.822457 1.566181 -1.284037 0.658723 -63.831335 -2.564604 -49.797874 -41.488915 -58.820647 -34.890242 0.000000 0.000000 0.000000 -9.070776 -1.732750 1.222092 11.820704 -2.862270 -10.419143 -8.905346 0.609639 -2.430488 -12.780581 6.362772 68.733710 -1.348339 22.548775 15.493856 0.000000 0.000000 0.000000 
28.218777 110.190018 -44.022419 0.000000 0.000000 0.000000 125.735832 -64.088799 128.959955 -1.560286 42.460110 7.094796 5.100549 -7.565223 0.552858 -9.870394 26.573321 -21.042718 2.524114 -8.180168 -1.501689 0.000000 0.000000 0.000000 127.896631 -62.739727 130.594159 -56.891009 24.601257 10.958582 21.303888 -11.676168 -1.982884 3.332839 4.568592 27.786388 2.189576 2.185734 -12.895338 0.000000 0.000000 0.000000 124.741794 -63.778333 126.983257 32.878116 4.860359 9.044531 -7.526102 -0.197854 0.023257 0.086831 0.151749 0.070728 0.000000 0.000000 0.000000 -7.992996 0.776587 1.838670 -4.783638 19.622444 8.245172 -16.129802 -34.572106 -17.508997 0.000000 0.000000 0.000000 -6.458038 -1.606873 1.524335 2.235778 -10.906857 35.131051 1.612715 -1.373155 0.843868 -64.215294 -2.271717 -50.311327 -40.380171 -58.806795 -33.786480 0.000000 0.000000 0.000000 -8.913376 -1.740844 1.310713 11.803727 -2.849535 -10.513169 -9.128639 0.548357 -2.396218 -12.817472 6.369781 69.435990 -1.609696 22.460360 15.382141 0.000000 0.000000 0.000000 
28.064508 110.427086 -44.291111 0.000000 0.000000 0.000000 125.667476 -64.474185 129.060318 -1.023313 42.307083 6.635000 4.415161 -7.414833 0.421620 -9.365041 26.329841 -21.019610 2.295777 -8.197471 -1.634758 0.000000 0.000000 0.000000 127.703774 -63.143405 130.540884 -56.365559 24.734200 10.800090 21.132547 -11.643899 -1.983287 3.286028 4.651037 27.680153 2.146916 2.179661 -12.902676 0.000000 0.000000 0.000000 124.742286 -64.174463 127.228065 32.644947 4.866361 8.881279 -7.348837 -0.151851 0.128422 0.088396 0.170025 0.062050 0.000000 0.000000 0.000000 -7.887470 0.831202 1.874780 -4.954460 18.819451 8.936517 -16.517378 -34.277714 -17.776278 0.000000 0.000000 0.000000 -6.196713 -1.607491 1.668857 2.038545 -10.359085 34.366336 1.699689 -1.384236 1.004770 -64.604362 -2.140165 -50.773755 -39.439039 -58.848930 -32.915136 0.000000 0.000000 0.000000 -8.742355 -1.718372 1.389423 11.795585 -2.810701 -10.608526 -9.367007 0.514261 -2.346060 -12.693791 6.231853 70.130832 -1.889338 22.651424 15.318991 0.000000 0.000000 0.000000 
27.907930 110.639374 -44.507290 0.000000 0.000000 0.000000 125.636672 -64.832483 129.228914 -0.481469 42.148281 6.162105 3.771089 -7.242709 0.305552 -8.905576 26.085263 -20.948016 2.088601 -8.208449 -1.761207 0.000000 0.000000 0.000000 127.520014 -63.524550 130.518071 -55.857967 24.837892 10.647936 20.976056 -11.625831 -1.993812 3.213484 4.673194 27.574729 2.105920 2.161655 -12.894607 0.000000 0.000000 0.000000 124.745291 -64.536852 127.494060 32.337117 4.888956 8.744298 -7.150370 -0.088099 0.214319 0.093754 0.169021 0.051393 0.000000 0.000000 0.000000 -7.741027 0.901202 1.904964 -5.019758 18.108138 9.434879 -16.973254 -33.911022 -18.209894 0.000000 0.000000 0.000000 -5.937007 -1.582962 1.778640 1.895154 -9.999974 33.592233 1.815213 -1.293756 1.120389 -64.937286 -2.166620 -51.140751 -38.667108 -58.912895 -32.278327 0.000000 0.000000 0.000000 -8.555053 -1.675670 1.465161 11.786059 -2.772075 -10.702411 -9.592650 0.501029 -2.303251 -12.451008 6.017410 70.779099 -2.158285 23.033304 15.288957 0.000000 0.000000 0.000000 
27.751694 110.824364 -44.681446 0.000000 0.000000 0.000000 125.669921 -65.159308 129.473804 0.037295 41.989653 5.706800 3.178066 -7.056690 0.209431 -8.485732 25.843199 -20.832617 1.906254 -8.211020 -1.888591 0.000000 0.000000 0.000000 127.389421 -63.873901 130.555501 -55.380676 24.911467 10.511747 20.861629 -11.626860 -2.010142 3.085133 4.624188 27.450488 2.099596 2.131720 -12.872836 0.000000 0.000000 0.000000 124.737477 -64.869872 127.734182 31.942274 4.929455 8.644823 -6.936808 -0.019331 0.287405 0.093035 0.162717 0.051891 0.000000 0.000000 0.000000 -7.556030 0.974218 1.938533 -5.027686 17.484731 9.772618 -17.476139 -33.493690 -18.751840 0.000000 0.000000 0.000000 -5.689200 -1.542611 1.863407 1.779787 -9.780135 32.855525 1.964352 -1.154040 1.174891 -65.187810 -2.290354 -51.380511 -38.015740 -58.945748 -31.827606 0.000000 0.000000 0.000000 -8.363828 -1.624896 1.542156 11.762400 -2.752073 -10.786576 -9.808344 0.461649 -2.246051 -12.146716 5.795706 71.358395 -2.363735 23.397698 15.241904 0.000000 0.000000 0.000000 
27.600891 110.982689 -44.810017 0.000000 0.000000 0.000000 125.753645 -65.457002 129.764442 0.501299 41.835141 5.295741 2.628367 -6.865976 0.128257 -8.119176 25.602281 -20.674634 1.762342 -8.203714 -2.026797 0.000000 0.000000 0.000000 127.349751 -64.187864 130.690329 -54.948004 24.966700 10.379774 20.823941 -11.628190 -2.020256 2.899111 4.520409 27.310004 2.150429 2.094422 -12.845424 0.000000 0.000000 0.000000 124.723147 -65.178521 127.935877 31.467846 4.982459 8.583285 -6.709030 0.040213 0.351525 0.090376 0.158076 0.058581 0.000000 0.000000 0.000000 -7.327562 1.036469 1.977571 -5.042575 16.935978 10.003806 -18.002891 -33.043581 -19.336334 0.000000 0.000000 0.000000 -5.461469 -1.495875 1.931292 1.671060 -9.641380 32.199052 2.118357 -0.991222 1.177366 -65.376945 -2.437653 -51.473108 -37.487982 -58.915347 -31.551178 0.000000 0.000000 0.000000 -8.176480 -1.586552 1.621681 11.713518 -2.788480 -10.835553 -10.063240 0.369316 -2.229010 -11.819602 5.626888 71.874504 -2.458581 23.603628 15.120265 0.000000 0.000000 0.000000 
27.455521 111.115402 -44.898190 0.000000 0.000000 0.000000 125.872819 -65.737962 130.085310 0.888031 41.667306 4.955006 2.121696 -6.689094 0.055075 -7.814680 25.349429 -20.494328 1.676538 -8.183554 -2.177861 0.000000 0.000000 0.000000 127.411387 -64.468810 130.927213 -54.570964 25.010872 10.233896 20.887279 -11.609185 -2.015718 2.694859 4.389956 27.176710 2.234674 2.058035 -12.824320 0.000000 0.000000 0.000000 124.684352 -65.478066 128.073574 30.941976 5.039341 8.547421 -6.479752 0.081399 0.404654 0.092239 0.156019 0.064934 0.000000 0.000000 0.000000 -7.059444 1.080731 2.018787 -5.095300 16.471746 10.181106 -18.544438 -32.586484 -19.916313 0.000000 0.000000 0.000000 -5.261582 -1.452581 1.987885 1.553148 -9.532638 31.637365 2.334758 -0.839052 1.140407 -65.584453 -2.554030 -51.458242 -37.069352 -58.814199 -31.427319 0.000000 0.000000 0.000000 -8.005343 -1.572681 1.698333 11.637188 -2.909741 -10.839456 -10.353428 0.224941 -2.219713 -11.478495 5.560625 72.355186 -2.413065 23.624349 14.884379 0.000000 0.000000 0.000000 
27.318323 111.208542 -44.945606 0.000000 0.000000 0.000000 125.990831 -66.019844 130.401248 1.176528 41.473769 4.709605 1.676287 -6.542040 -0.015379 -7.589466 25.062612 -20.302672 1.653296 -8.149287 -2.332715 0.000000 0.000000 0.000000 127.527732 -64.744237 131.227236 -54.240718 25.045156 10.041590 21.081338 -11.556186 -1.990018 2.504576 4.251846 27.067309 2.330666 2.029100 -12.813142 0.000000 0.000000 0.000000 124.592923 -65.789728 128.138597 30.398361 5.087344 8.514567 -6.258718 0.096583 0.438877 0.098921 0.157901 0.074703 0.000000 0.000000 0.000000 -6.755772 1.102294 2.051298 -5.210042 16.089392 10.362592 -19.076155 -32.138185 -20.445072 0.000000 0.000000 0.000000 -5.093442 -1.419223 2.030366 1.407758 -9.408033 31.142193 2.591863 -0.785463 1.074466 -65.847108 -2.649162 -51.381068 -36.797695 -58.710858 -31.494364 0.000000 0.000000 0.000000 -7.855472 -1.588555 1.755137 11.540918 -3.116316 -10.776249 -10.648113 0.092625 -2.257133 -11.109894 5.594591 72.867327 -2.225461 23.521199 14.516025 0.000000 0.000000 0.000000 
27.191883 111.248993 -44.942280 0.000000 0.000000 0.000000 126.093420 -66.317681 130.706407 1.351654 41.249152 4.577316 1.320369 -6.429103 -0.087127 -7.460232 24.725326 -20.085906 1.699448 -8.102234 -2.477317 0.000000 0.000000 0.000000 127.655061 -65.033981 131.547722 -53.928445 25.056074 9.771415 21.397091 -11.479007 -1.941591 2.331183 4.093937 26.978383 2.402574 2.011261 -12.807661 0.000000 0.000000 0.000000 124.464516 -66.132528 128.177365 29.869845 5.117169 8.459991 -6.056492 0.087743 0.443458 0.101839 0.153304 0.080836 0.000000 0.000000 0.000000 -6.431032 1.103299 2.060709 -5.381618 15.793057 10.600891 -19.547952 -31.717561 -20.861201 0.000000 0.000000 0.000000 -4.954811 -1.398442 2.049520 1.226255 -9.240828 30.682132 2.951099 -0.816263 0.984048 -66.184478 -2.777556 -51.292156 -36.707913 -58.666940 -31.779152 0.000000 0.000000 0.000000 -7.725358 -1.634607 1.775625 11.429869 -3.403478 -10.660668 -10.965257 0.003278 -2.363717 -10.724455 5.700673 73.429123 -1.934104 23.446257 14.037827 0.000000 0.000000 0.000000 
27.075552 111.232498 -44.906132 0.000000 0.000000 0.000000 126.164304 -66.644082 130.987387 1.398573 40.994987 4.573819 1.089290 -6.353324 -0.160191 -7.415370 24.318479 -19.841105 1.798950 -8.044034 -2.591586 0.000000 0.000000 0.000000 127.765573 -65.359077 131.858373 -53.609752 25.014171 9.404884 21.839033 -11.410844 -1.867043 2.166939 3.881423 26.876002 2.409230 2.006816 -12.793440 0.000000 0.000000 0.000000 124.295646 -66.526220 128.208197 29.379154 5.121006 8.363813 -5.881834 0.058892 0.416441 0.105430 0.144363 0.084498 0.000000 0.000000 0.000000 -6.104599 1.085670 2.043558 -5.608072 15.577486 10.947653 -19.918628 -31.300547 -21.124629 0.000000 0.000000 0.000000 -4.837969 -1.390836 2.042219 1.002157 -9.014313 30.219042 3.401739 -0.966580 0.863678 -66.543726 -3.000752 -51.214493 -36.747289 -58.686905 -32.222722 0.000000 0.000000 0.000000 -7.611464 -1.705261 1.751256 11.315043 -3.735147 -10.515689 -11.265076 -0.060360 -2.517011 -10.356380 5.827759 74.023131 -1.585392 23.454501 13.478309 0.000000 0.000000 0.000000 
